# Blender 3.5.1
# www.blender.org
mtllib tire.mtl
o Car
v 0.136815 0.458577 0.004003
v -0.136815 0.458577 0.004003
v -0.136816 0.321433 0.327092
v 0.136815 0.321433 0.327092
v -0.136816 -0.004002 0.458577
v 0.136815 -0.004002 0.458577
v -0.136816 -0.327092 0.321434
v 0.136816 -0.327092 0.321434
v -0.136816 -0.458577 -0.004001
v 0.136815 -0.458577 -0.004002
v -0.136815 -0.321433 -0.327092
v 0.136816 -0.321433 -0.327092
v -0.136815 0.004002 -0.458576
v 0.136816 0.004002 -0.458576
v -0.136816 0.327093 -0.321433
v 0.136815 0.327093 -0.321433
vn -0.0000 0.9205 0.3907
vn -0.0000 0.3746 0.9272
vn -0.0000 -0.3907 0.9205
vn -0.0000 -0.9272 0.3746
vn -0.0000 -0.9205 -0.3907
vn -0.0000 -0.3746 -0.9272
vn -0.0000 0.3907 -0.9205
vn -0.0000 0.9272 -0.3746
vn 1.0000 -0.0000 -0.0000
vn -1.0000 -0.0000 -0.0000
vt 0.094859 0.660001
vt 0.159718 0.979719
vt 0.094859 0.610001
vt 0.159718 0.979719
vt 0.057430 0.610000
vt 0.053852 0.935867
vt 0.057429 0.660000
vt 0.053852 0.935867
vt 0.020000 0.610000
vt 0.319437 0.610002
vt 0.010000 0.830000
vt 0.020000 0.660000
vt 0.319437 0.660002
vt 0.010000 0.830000
vt 0.282007 0.610002
vt 0.053852 0.724133
vt 0.282007 0.660002
vt 0.053852 0.724133
vt 0.244578 0.610002
vt 0.159718 0.680281
vt 0.244578 0.660002
vt 0.159718 0.680281
vt 0.207148 0.610001
vt 0.265585 0.724133
vt 0.207148 0.660001
vt 0.265585 0.724133
vt 0.169719 0.610001
vt 0.309437 0.830000
vt 0.169718 0.660001
vt 0.309437 0.830000
vt 0.132289 0.610001
vt 0.265585 0.935867
vt 0.132289 0.660001
vt 0.265585 0.935867
s 1
usemtl car_mat
f 1/1/1 2/3/1 3/5/1 4/7/1
f 4/7/2 3/5/2 5/9/2 6/12/2
f 6/13/3 5/10/3 7/15/3 8/17/3
f 8/17/4 7/15/4 9/19/4 10/21/4
f 10/21/5 9/19/5 11/23/5 12/25/5
f 12/25/6 11/23/6 13/27/6 14/29/6
f 14/29/7 13/27/7 15/31/7 16/33/7
f 16/33/8 15/31/8 2/3/8 1/1/8
f 1/2/9 4/8/9 6/14/9 10/22/9
f 6/14/9 8/18/9 10/22/9
f 14/30/9 1/2/9 10/22/9 12/26/9
f 16/34/9 1/2/9 14/30/9
f 15/32/10 13/28/10 11/24/10 7/16/10
f 11/24/10 9/20/10 7/16/10
f 3/6/10 15/32/10 7/16/10 5/11/10
f 2/4/10 15/32/10 3/6/10
