{"accessors":[{"bufferView":0,"byteOffset":0,"componentType":5126,"count":519,"max":[1.740527,6.000859,1.865895],"min":[-1.40877,-0.805531,-1.640352],"normalized":false,"type":"VEC3"},{"bufferView":1,"byteOffset":0,"componentType":5126,"count":519,"max":[0.999114,0.991329,0.999838,1],"min":[-0.996267,-0.987021,-0.997736,-1],"normalized":false,"type":"VEC4"},{"bufferView":2,"byteOffset":0,"componentType":5126,"count":519,"max":[0.933282,0.972365,0.994457],"min":[-0.959991,-0.998528,-0.998305],"normalized":false,"type":"VEC3"},{"bufferView":3,"byteOffset":0,"componentType":5126,"count":519,"max":[0.990723,0.981934],"min":[0.806641,0.67627],"normalized":false,"type":"VEC2"},{"bufferView":4,"byteOffset":0,"componentType":5126,"count":519,"max":[1,1,1,1],"min":[1,1,1,1],"normalized":false,"type":"VEC4"},{"bufferView":5,"byteOffset":0,"componentType":5125,"count":1260,"max":[518],"min":[0],"normalized":false,"type":"SCALAR"},{"bufferView":6,"byteOffset":0,"componentType":5126,"count":344,"max":[3.095125,4.113923,2.878523],"min":[-3.131681,-1.119165,-1.610837],"normalized":false,"type":"VEC3"},{"bufferView":7,"byteOffset":0,"componentType":5126,"count":344,"max":[0.999563,0.983451,0.999968,1],"min":[-0.999837,-0.582552,-0.997743,1],"normalized":false,"type":"VEC4"},{"bufferView":8,"byteOffset":0,"componentType":5126,"count":344,"max":[0.986685,0.963119,0.999935],"min":[-0.997748,-0.989814,-0.998802],"normalized":false,"type":"VEC3"},{"bufferView":9,"byteOffset":0,"componentType":5126,"count":344,"max":[0.995605,0.512695],"min":[0.424561,0.040131],"normalized":false,"type":"VEC2"},{"bufferView":10,"byteOffset":0,"componentType":5125,"count":1044,"max":[343],"min":[0],"normalized":false,"type":"SCALAR"}],"asset":{"generator":"Godot Engine v4.2.1.stable.official@b09f793f564a6c95dc76acc654b390e68441bd01","version":"2.0"},"bufferViews":[{"buffer":0,"byteLength":6228,"byteOffset":0},{"buffer":0,"byteLength":8304,"byteOffset":6228},{"buffer":0,"byteLength":6228,"byteOffset":14532},{"buffer":0,"byteLength":4152,"byteOffset":20760},{"buffer":0,"byteLength":8304,"byteOffset":24912},{"buffer":0,"byteLength":5040,"byteOffset":33216},{"buffer":0,"byteLength":4128,"byteOffset":38256},{"buffer":0,"byteLength":5504,"byteOffset":42384},{"buffer":0,"byteLength":4128,"byteOffset":47888},{"buffer":0,"byteLength":2752,"byteOffset":52016},{"buffer":0,"byteLength":4176,"byteOffset":54768}],"buffers":[{"byteLength":58944,"uri":"psx_tree0.bin"}],"extensionsUsed":["GODOT_single_root"],"materials":[{}],"meshes":[{"extras":{"targetNames":[]},"primitives":[{"attributes":{"COLOR_0":4,"NORMAL":2,"POSITION":0,"TANGENT":1,"TEXCOORD_0":3},"indices":5,"material":0,"mode":4}]},{"extras":{"targetNames":[]},"primitives":[{"attributes":{"NORMAL":8,"POSITION":6,"TANGENT":7,"TEXCOORD_0":9},"indices":10,"material":0,"mode":4}]}],"nodes":[{"children":[1],"extensions":{},"mesh":0,"name":"Tree_1","translation":[0,0.75,0]},{"extensions":{},"mesh":1,"name":"Tree_Leaves_1","translation":[0.51003098487854,3.26479005813599,0.262484014034271]}],"scene":0,"scenes":[{"nodes":[0]}]}
