# Blender 4.0.2
# www.blender.org
mtllib bone_skull.mtl
o bone_skull
v 0.046094 -0.060771 0.036537
v 0.072715 0.118082 0.062785
v 0.064651 -0.020888 -0.103273
v 0.073516 0.134243 -0.110339
v 0.000000 -0.014965 -0.133565
v 0.000000 0.161901 -0.116836
v 0.000000 -0.070847 0.124920
v 0.000000 0.139483 0.089334
v 0.086953 0.081873 -0.135573
v 0.000000 0.063198 0.121870
v 0.000000 0.099223 -0.168792
v 0.075820 0.022809 -0.128833
v 0.000000 0.018621 0.127005
v 0.000000 0.022936 -0.159738
v 0.068551 -0.043688 -0.050852
v 0.083433 0.145253 -0.022805
v 0.000000 0.180749 -0.006824
v 0.000000 -0.031641 -0.028984
v 0.097015 0.060567 -0.006645
v 0.096502 0.000170 -0.008370
v 0.029681 -0.076587 0.111338
v 0.053266 0.133472 0.082004
v 0.051918 0.168773 -0.013240
v 0.054915 -0.026137 0.064559
v 0.040309 0.037804 0.086444
v 0.053296 0.063476 0.111164
v 0.075490 0.042190 0.084707
v 0.088875 -0.013798 0.081133
v 0.036109 -0.026417 0.100928
v 0.000000 -0.001743 0.118133
v 0.000000 -0.009550 0.001703
v 0.026981 -0.002033 0.004534
v 0.050744 -0.001805 -0.003122
v 0.000000 0.037190 0.113289
v 0.067630 -0.093045 -0.001043
v 0.000000 -0.137533 0.109885
v 0.067139 -0.007033 0.048839
v 0.026862 -0.135712 0.102792
v 0.045746 -0.051027 0.040418
v 0.026471 -0.068551 0.111458
v 0.000000 -0.070790 0.120329
v 0.076176 -0.007033 -0.021307
v 0.029681 -0.076587 0.111338
v 0.046094 -0.060771 0.036537
v 0.088875 -0.013798 0.081133
v 0.000000 -0.070847 0.124920
v -0.046094 -0.060771 0.036537
v -0.072715 0.118082 0.062785
v -0.064651 -0.020888 -0.103273
v -0.073516 0.134243 -0.110339
v -0.086953 0.081873 -0.135573
v -0.075820 0.022809 -0.128833
v -0.068551 -0.043688 -0.050852
v -0.083433 0.145253 -0.022805
v -0.097015 0.060567 -0.006645
v -0.096502 0.000170 -0.008370
v -0.029681 -0.076587 0.111338
v -0.053266 0.133472 0.082004
v -0.051918 0.168773 -0.013240
v -0.054915 -0.026137 0.064559
v -0.040309 0.037804 0.086444
v -0.053296 0.063476 0.111164
v -0.075490 0.042190 0.084707
v -0.088875 -0.013798 0.081133
v -0.036109 -0.026417 0.100928
v -0.026981 -0.002033 0.004534
v -0.050744 -0.001805 -0.003122
v -0.067630 -0.093045 -0.001043
v -0.067139 -0.007033 0.048839
v -0.026862 -0.135712 0.102792
v -0.045746 -0.051027 0.040418
v -0.026471 -0.068551 0.111458
v -0.076176 -0.007033 -0.021307
v -0.029681 -0.076587 0.111338
v -0.046094 -0.060771 0.036537
v -0.088875 -0.013798 0.081133
vn -0.0000 -0.7903 -0.6127
vn 0.7185 -0.3321 -0.6111
vn 0.4933 -0.7464 -0.4467
vn 0.9963 0.0648 0.0570
vn 0.8626 0.3626 0.3527
vn 0.7363 -0.0486 0.6750
vn -0.0000 -0.9528 0.3037
vn 0.1432 -0.9857 0.0891
vn 0.0178 -0.9880 -0.1535
vn -0.0000 0.9934 0.1149
vn 0.4832 0.6232 0.6149
vn 0.4297 0.8998 0.0759
vn 0.4485 -0.1442 0.8821
vn -0.0000 0.7019 0.7123
vn -0.0000 -0.0626 0.9980
vn 0.3372 -0.2566 0.9058
vn 0.8674 -0.4937 0.0618
vn 0.7164 0.2031 0.6674
vn -0.0000 -0.3471 -0.9378
vn 0.7953 0.1088 -0.5963
vn 0.3854 -0.9226 0.0177
vn -0.0000 0.8611 -0.5085
vn 0.6795 0.6058 -0.4139
vn 0.8440 0.5358 0.0238
vn 0.6247 -0.0538 0.7790
vn -0.0000 0.1246 0.9922
vn 0.7065 -0.0047 0.7077
vn -0.0000 0.1959 0.9806
vn -0.0000 -0.9983 0.0588
vn 0.7180 -0.6946 0.0448
vn 0.3483 -0.9373 -0.0159
vn -0.0000 0.1699 0.9855
vn -0.0000 -0.2590 0.9659
vn -0.4208 -0.7998 -0.4281
vn -0.0000 -0.8953 -0.4454
vn -0.8053 -0.4635 -0.3697
vn 0.9686 -0.2487 0.0024
vn -0.0000 0.2742 -0.9617
vn 0.6588 -0.0773 0.7484
vn -0.0000 -0.1332 0.9911
vn -0.0000 -0.1546 0.9880
vn 0.9386 -0.0766 0.3364
vn 0.9042 0.0526 0.4239
vn 0.9280 -0.2085 0.3089
vn -0.7185 -0.3321 -0.6111
vn -0.9963 0.0648 0.0570
vn -0.8626 0.3626 0.3527
vn -0.8440 0.5358 0.0238
vn -0.1432 -0.9857 0.0891
vn -0.3854 -0.9226 0.0177
vn -0.4832 0.6232 0.6149
vn -0.4297 0.8998 0.0759
vn -0.4485 -0.1442 0.8821
vn -0.3372 -0.2566 0.9058
vn -0.8674 -0.4937 0.0618
vn -0.7363 -0.0486 0.6750
vn -0.4933 -0.7464 -0.4467
vn -0.7953 0.1088 -0.5963
vn -0.6795 0.6058 -0.4139
vn -0.6247 -0.0538 0.7790
vn -0.7065 -0.0047 0.7077
vn -0.0178 -0.9880 -0.1535
vn -0.3483 -0.9373 -0.0159
vn -0.7180 -0.6946 0.0448
vn -0.7164 0.2031 0.6674
vn 0.4208 -0.7998 -0.4281
vn 0.8053 -0.4635 -0.3697
vn -0.9686 -0.2487 0.0024
vn -0.6588 -0.0773 0.7484
vn -0.7475 -0.0807 0.6594
vn -0.9386 -0.0766 0.3364
vn -0.9042 0.0526 0.4239
vn -0.9280 -0.2085 0.3089
vn -0.8847 -0.4520 0.1140
vn 0.7475 -0.0807 0.6594
vn 0.8847 -0.4520 0.1140
vt 0.045066 0.424579
vt 0.112237 0.539802
vt 0.040056 0.539802
vt 0.337861 0.850879
vt 0.201789 0.934455
vt 0.182306 0.803292
vt 0.473979 0.565052
vt 0.420561 0.651730
vt 0.413229 0.618548
vt 0.472426 0.424579
vt 0.606762 0.497141
vt 0.471657 0.493431
vt 0.129054 0.838927
vt 0.043031 0.974789
vt 0.043031 0.830110
vt 0.124136 0.786301
vt 0.356473 0.747127
vt 0.209076 0.723765
vt 0.601969 0.659973
vt 0.601969 0.565052
vt 0.107023 0.424579
vt 0.196216 0.539802
vt 0.458899 0.687005
vt 0.349119 0.666184
vt 0.534535 0.744435
vt 0.556070 0.825888
vt 0.313641 0.424579
vt 0.488931 0.989707
vt 0.546497 0.927509
vt 0.287660 0.539802
vt 0.466472 0.539802
vt 0.128663 0.662649
vt 0.043031 0.565847
vt 0.120876 0.564384
vt 0.043031 0.780371
vt 0.588365 0.539802
vt 0.421288 0.565052
vt 0.215583 0.660223
vt 0.043031 0.744859
vt 0.043031 0.703126
vt 0.291535 0.603083
vt 0.279434 0.565052
vt 0.370993 0.654794
vt 0.257337 0.591612
vt 0.213584 0.424579
vt 0.130388 0.017154
vt 0.045689 0.215404
vt 0.041007 0.019225
vt 0.389838 0.235685
vt 0.483589 0.079433
vt 0.609464 0.322621
vt 0.339862 0.989707
vt 0.507959 0.675672
vt 0.151060 0.957620
vt 0.132076 0.215683
vt 0.397397 0.373759
vt 0.614037 0.424579
s 1
usemtl Head
f 5/1/1 12/2/2 3/3/3
f 19/4/4 2/5/5 27/6/6
f 18/7/7 33/8/8 32/9/9
f 17/10/10 22/11/11 23/12/12
f 26/13/13 8/14/14 10/15/15
f 25/16/16 26/13/13 10/15/15
f 20/17/17 27/6/6 45/18/18
f 3/19/3 18/7/7 5/20/1
f 14/21/19 9/22/20 12/2/2
f 15/23/21 20/17/17 33/24/8
f 3/25/3 20/17/17 15/23/21
f 12/26/2 19/4/4 20/17/17
f 6/27/22 17/10/10 23/12/12
f 4/28/23 19/4/4 9/29/20
f 4/30/23 23/12/12 16/31/24
f 29/32/25 7/33/26 21/34/27
f 10/15/15 34/35/28 25/16/16
f 2/5/5 26/13/13 27/6/6
f 23/12/12 2/36/5 16/31/24
f 18/7/7 32/9/9 31/37/29
f 29/32/25 24/38/30 28/18/31
f 28/18/31 24/38/30 20/17/17
f 45/18/18 25/16/16 29/32/25
f 25/16/16 27/6/6 26/13/13
f 25/16/16 13/39/32 29/32/25
f 30/40/33 29/32/25 13/39/32
f 31/37/29 43/41/34 46/42/35
f 32/9/9 1/43/36 43/41/34
f 33/24/8 24/38/30 44/44/37
f 11/45/38 4/30/23 9/22/20
f 24/38/30 21/34/27 44/44/37
f 38/46/39 41/47/40 36/48/41
f 39/49/42 38/46/39 35/50/43
f 42/51/44 39/49/42 35/50/43
f 5/1/1 52/2/45 14/21/19
f 55/4/46 48/5/47 54/52/48
f 18/7/7 67/8/49 53/53/50
f 58/11/51 17/10/10 59/12/52
f 62/13/53 8/14/14 58/54/51
f 61/16/54 10/15/15 62/13/53
f 56/17/55 63/6/56 55/4/46
f 18/7/7 49/19/57 5/20/1
f 14/21/19 51/22/58 11/45/38
f 53/23/50 67/24/49 56/17/55
f 49/25/57 56/17/55 52/26/45
f 52/26/45 55/4/46 51/29/58
f 6/27/22 59/12/52 17/10/10
f 55/4/46 50/28/59 51/29/58
f 50/30/59 59/12/52 6/27/22
f 7/33/26 65/32/60 57/34/61
f 10/15/15 61/16/54 34/35/28
f 62/13/53 48/5/47 63/6/56
f 48/36/47 59/12/52 54/31/48
f 18/7/7 31/37/29 66/9/62
f 65/32/60 64/18/63 60/38/64
f 64/18/63 56/17/55 60/38/64
f 76/18/65 61/16/54 63/6/56
f 61/16/54 62/13/53 63/6/56
f 61/16/54 13/39/32 34/35/28
f 30/40/33 13/39/32 65/32/60
f 31/37/29 74/41/66 66/9/62
f 66/9/62 47/43/67 67/8/49
f 67/24/49 60/38/64 56/17/55
f 11/45/38 50/30/59 6/27/22
f 57/34/61 60/38/64 75/44/68
f 70/46/69 41/47/40 72/55/70
f 70/46/69 71/49/71 68/50/72
f 73/51/73 71/49/71 69/56/74
f 5/1/1 14/21/19 12/2/2
f 19/4/4 16/52/24 2/5/5
f 18/7/7 15/53/21 33/8/8
f 17/10/10 8/57/14 22/11/11
f 26/13/13 22/54/11 8/14/14
f 20/17/17 19/4/4 27/6/6
f 3/19/3 15/53/21 18/7/7
f 14/21/19 11/45/38 9/22/20
f 3/25/3 12/26/2 20/17/17
f 12/26/2 9/29/20 19/4/4
f 4/28/23 16/52/24 19/4/4
f 4/30/23 6/27/22 23/12/12
f 29/32/25 30/40/33 7/33/26
f 2/5/5 22/54/11 26/13/13
f 23/12/12 22/11/11 2/36/5
f 45/18/18 27/6/6 25/16/16
f 25/16/16 34/35/28 13/39/32
f 31/37/29 32/9/9 43/41/34
f 32/9/9 33/8/8 1/43/36
f 33/24/8 20/17/17 24/38/30
f 11/45/38 6/27/22 4/30/23
f 24/38/30 29/32/25 21/34/27
f 38/46/39 40/55/75 41/47/40
f 39/49/42 40/55/75 38/46/39
f 42/51/44 37/56/76 39/49/42
f 5/1/1 49/3/57 52/2/45
f 55/4/46 63/6/56 48/5/47
f 18/7/7 66/9/62 67/8/49
f 58/11/51 8/57/14 17/10/10
f 62/13/53 10/15/15 8/14/14
f 56/17/55 76/18/65 63/6/56
f 18/7/7 53/53/50 49/19/57
f 14/21/19 52/2/45 51/22/58
f 49/25/57 53/23/50 56/17/55
f 52/26/45 56/17/55 55/4/46
f 55/4/46 54/52/48 50/28/59
f 50/30/59 54/31/48 59/12/52
f 7/33/26 30/40/33 65/32/60
f 62/13/53 58/54/51 48/5/47
f 48/36/47 58/11/51 59/12/52
f 76/18/65 65/32/60 61/16/54
f 61/16/54 65/32/60 13/39/32
f 31/37/29 46/42/35 74/41/66
f 66/9/62 74/41/66 47/43/67
f 67/24/49 75/44/68 60/38/64
f 11/45/38 51/22/58 50/30/59
f 57/34/61 65/32/60 60/38/64
f 70/46/69 36/48/41 41/47/40
f 70/46/69 72/55/70 71/49/71
f 73/51/73 68/50/72 71/49/71
