{
	"asset":{
		"generator":"Khronos glTF Blender I/O v4.0.44",
		"version":"2.0"
	},
	"scene":0,
	"scenes":[
		{
			"name":"Scene",
			"nodes":[
				3
			]
		}
	],
	"nodes":[
		{
			"mesh":0,
			"name":"ControlBoxSwitch_1",
			"translation":[
				0.13644100725650787,
				-0.07894369959831238,
				0.03225329890847206
			]
		},
		{
			"children":[
				0
			],
			"mesh":1,
			"name":"ControlBoxCircuit_1",
			"translation":[
				0,
				0,
				0.017999600619077682
			]
		},
		{
			"mesh":2,
			"name":"ControlBoxDoor_1",
			"rotation":[
				0,
				-0.8733602166175842,
				0,
				0.48707497119903564
			],
			"translation":[
				-0.21740299463272095,
				0,
				0.20531900227069855
			]
		},
		{
			"children":[
				1,
				2
			],
			"mesh":3,
			"name":"ControlBox_1"
		}
	],
	"materials":[
		{
			"doubleSided":true,
			"emissiveTexture":{
				"index":0
			},
			"name":"StreetLamp2.001",
			"normalTexture":{
				"index":1
			},
			"pbrMetallicRoughness":{
				"baseColorFactor":[
					0.9999998807907104,
					0.9999998807907104,
					0.9999998807907104,
					1
				],
				"baseColorTexture":{
					"index":2
				},
				"metallicRoughnessTexture":{
					"index":3
				}
			}
		},
		{
			"name":"StreetLamp.001",
			"pbrMetallicRoughness":{
				"baseColorFactor":[
					0.9999998807907104,
					0.9999998807907104,
					0.9999998807907104,
					1
				],
				"baseColorTexture":{
					"index":4
				},
				"metallicFactor":0
			}
		}
	],
	"meshes":[
		{
			"name":"Mesh_3.001",
			"primitives":[
				{
					"attributes":{
						"POSITION":0,
						"NORMAL":1,
						"TEXCOORD_0":2
					},
					"indices":3,
					"material":0
				}
			]
		},
		{
			"name":"Mesh_2.001",
			"primitives":[
				{
					"attributes":{
						"POSITION":4,
						"NORMAL":5,
						"TEXCOORD_0":6
					},
					"indices":7,
					"material":1
				}
			]
		},
		{
			"name":"Mesh_1.001",
			"primitives":[
				{
					"attributes":{
						"POSITION":8,
						"NORMAL":9,
						"TEXCOORD_0":10
					},
					"indices":11,
					"material":1
				}
			]
		},
		{
			"name":"Mesh_0.001",
			"primitives":[
				{
					"attributes":{
						"POSITION":12,
						"NORMAL":13,
						"TEXCOORD_0":14
					},
					"indices":15,
					"material":1
				}
			]
		}
	],
	"textures":[
		{
			"sampler":0,
			"source":0
		},
		{
			"sampler":0,
			"source":1
		},
		{
			"sampler":0,
			"source":2
		},
		{
			"sampler":0,
			"source":3
		},
		{
			"sampler":0,
			"source":4
		}
	],
	"images":[
		{
			"mimeType":"image/png",
			"name":"street_lamp_emission000",
			"uri":"street_lamp_emission000.png"
		},
		{
			"mimeType":"image/png",
			"name":"street_lamp_normal000",
			"uri":"street_lamp_normal000.png"
		},
		{
			"mimeType":"image/png",
			"name":"street_lamp_albedo002",
			"uri":"street_lamp_albedo002.png"
		},
		{
			"mimeType":"image/png",
			"name":"street_lamp_orm000",
			"uri":"street_lamp_orm000.png"
		},
		{
			"mimeType":"image/png",
			"name":"street_lamp_albedo000",
			"uri":"street_lamp_albedo000.png"
		}
	],
	"accessors":[
		{
			"bufferView":0,
			"componentType":5126,
			"count":20,
			"max":[
				0.02780500054359436,
				0.010483000427484512,
				0.018187999725341797
			],
			"min":[
				-0.02780500054359436,
				-0.010483000427484512,
				0.006056999787688255
			],
			"type":"VEC3"
		},
		{
			"bufferView":1,
			"componentType":5126,
			"count":20,
			"type":"VEC3"
		},
		{
			"bufferView":2,
			"componentType":5126,
			"count":20,
			"type":"VEC2"
		},
		{
			"bufferView":3,
			"componentType":5123,
			"count":30,
			"type":"SCALAR"
		},
		{
			"bufferView":4,
			"componentType":5126,
			"count":579,
			"max":[
				0.18008700013160706,
				0.22181400656700134,
				0.059560999274253845
			],
			"min":[
				-0.16660800576210022,
				-0.22181400656700134,
				-3.999999989900971e-06
			],
			"type":"VEC3"
		},
		{
			"bufferView":5,
			"componentType":5126,
			"count":579,
			"type":"VEC3"
		},
		{
			"bufferView":6,
			"componentType":5126,
			"count":579,
			"type":"VEC2"
		},
		{
			"bufferView":7,
			"componentType":5123,
			"count":1182,
			"type":"SCALAR"
		},
		{
			"bufferView":8,
			"componentType":5126,
			"count":237,
			"max":[
				0.4645859897136688,
				0.2538299858570099,
				0.015978999435901642
			],
			"min":[
				-0.005495999939739704,
				-0.2538299858570099,
				-0.011606000363826752
			],
			"type":"VEC3"
		},
		{
			"bufferView":9,
			"componentType":5126,
			"count":237,
			"type":"VEC3"
		},
		{
			"bufferView":10,
			"componentType":5126,
			"count":237,
			"type":"VEC2"
		},
		{
			"bufferView":11,
			"componentType":5123,
			"count":444,
			"type":"SCALAR"
		},
		{
			"bufferView":12,
			"componentType":5126,
			"count":342,
			"max":[
				0.24718299508094788,
				0.2718299925327301,
				0.21383099257946014
			],
			"min":[
				-0.22289900481700897,
				-0.2718299925327301,
				0
			],
			"type":"VEC3"
		},
		{
			"bufferView":13,
			"componentType":5126,
			"count":342,
			"type":"VEC3"
		},
		{
			"bufferView":14,
			"componentType":5126,
			"count":342,
			"type":"VEC2"
		},
		{
			"bufferView":15,
			"componentType":5123,
			"count":660,
			"type":"SCALAR"
		}
	],
	"bufferViews":[
		{
			"buffer":0,
			"byteLength":240,
			"byteOffset":0,
			"target":34962
		},
		{
			"buffer":0,
			"byteLength":240,
			"byteOffset":240,
			"target":34962
		},
		{
			"buffer":0,
			"byteLength":160,
			"byteOffset":480,
			"target":34962
		},
		{
			"buffer":0,
			"byteLength":60,
			"byteOffset":640,
			"target":34963
		},
		{
			"buffer":0,
			"byteLength":6948,
			"byteOffset":700,
			"target":34962
		},
		{
			"buffer":0,
			"byteLength":6948,
			"byteOffset":7648,
			"target":34962
		},
		{
			"buffer":0,
			"byteLength":4632,
			"byteOffset":14596,
			"target":34962
		},
		{
			"buffer":0,
			"byteLength":2364,
			"byteOffset":19228,
			"target":34963
		},
		{
			"buffer":0,
			"byteLength":2844,
			"byteOffset":21592,
			"target":34962
		},
		{
			"buffer":0,
			"byteLength":2844,
			"byteOffset":24436,
			"target":34962
		},
		{
			"buffer":0,
			"byteLength":1896,
			"byteOffset":27280,
			"target":34962
		},
		{
			"buffer":0,
			"byteLength":888,
			"byteOffset":29176,
			"target":34963
		},
		{
			"buffer":0,
			"byteLength":4104,
			"byteOffset":30064,
			"target":34962
		},
		{
			"buffer":0,
			"byteLength":4104,
			"byteOffset":34168,
			"target":34962
		},
		{
			"buffer":0,
			"byteLength":2736,
			"byteOffset":38272,
			"target":34962
		},
		{
			"buffer":0,
			"byteLength":1320,
			"byteOffset":41008,
			"target":34963
		}
	],
	"samplers":[
		{
			"magFilter":9729,
			"minFilter":9987
		}
	],
	"buffers":[
		{
			"byteLength":42328,
			"uri":"control_box.bin"
		}
	]
}
